ply
format ascii 1.0
element vertex 12
property float32 x
property float32 y
property float32 z
element face 20
property list uchar int vertex_indices
end_header
1.618 1 0
-1.618 1 0
0 1.618 1
0 -1.618 1
1 0 1.618
1 0 -1.618
-1.618 -1 0
1.618 -1 0
0 -1.618 -1
0 1.618 -1
-1 0 -1.618
-1 0 1.618

3 0 2 4
3 7 0 4
3 0 9 2
3 4 2 11
3 5 9 0
3 9 1 2
3 2 1 11
3 11 3 4
3 7 4 3
3 11 6 3
3 11 1 6
3 9 10 1
3 10 6 1
3 5 10 9
3 5 0 7
3 10 5 8
3 6 10 8
3 3 6 8
3 7 3 8
3 5 7 8